<svg xmlns="http://www.w3.org/2000/svg" viewBox="0 0 24 24" id="gallery"><g data-name="Layer 2"><g data-name="Layer 3"><path fill="none" d="M0 0h24v24H0z"></path><path fill="#fff" d="M1 12C1 4 4 1 12 1s11 3 11 11-3 11-11 11S1 20 1 12"></path><path fill="#ff2ca9" d="M7.05 7.62c.63.36 4 3 3.6 3.6s-4.29-1-4.92-1.32a1.32 1.32 0 1 1 1.32-2.28Z"></path><path fill="#63e000" d="M18.27 14.1c-.63-.37-4.55-1.95-4.92-1.32s3 3.24 3.6 3.6a1.32 1.32 0 1 0 1.32-2.28Z"></path><path fill="#ff8314" d="M16.38 7.05c-.36.63-3 4-3.6 3.6s1-4.29 1.32-4.92a1.32 1.32 0 0 1 2.28 1.32Z"></path><path fill="#008edd" d="M9.9 18.27c.37-.63 1.95-4.55 1.32-4.92S8 16.32 7.62 17a1.32 1.32 0 1 0 2.28 1.27Z"></path><path fill="#ffae00" d="M18.27 9.9c-.63.37-4.55 1.95-4.92 1.32s3-3.24 3.6-3.6a1.32 1.32 0 1 1 1.32 2.28Z"></path><path fill="#053fd2" d="M7.05 16.38c.63-.36 4-3 3.6-3.6s-4.29 1-4.92 1.32a1.32 1.32 0 1 0 1.32 2.28Z"></path><path fill="#00cf00" d="M14.1 18.27c-.37-.63-1.95-4.55-1.32-4.92s3.24 3 3.6 3.6a1.32 1.32 0 0 1-2.28 1.32Z"></path><path fill="#ff3148" d="M7.62 7.05c.36.63 3 4 3.6 3.6s-1-4.29-1.32-4.92a1.32 1.32 0 1 0-2.28 1.32Z"></path><path fill="#c12cd7" d="M5.52 10.68c.73 0 4.92.59 4.92 1.32s-4.19 1.32-4.92 1.32a1.32 1.32 0 1 1 0-2.64Z"></path><path fill="#fdfe00" d="M18.48 10.68c-.73 0-4.92.59-4.92 1.32s4.19 1.32 4.92 1.32a1.32 1.32 0 0 0 0-2.64Z"></path><path fill="#ff2b2d" d="M13.32 5.52c0 .73-.59 4.92-1.32 4.92s-1.32-4.19-1.32-4.92a1.32 1.32 0 0 1 2.64 0Z"></path><path fill="#00bbdf" d="M13.32 18.48c0-.73-.59-4.92-1.32-4.92s-1.32 4.19-1.32 4.92a1.32 1.32 0 0 0 2.64 0Z"></path></g></g></svg>